<svg fill="none" height="46" viewBox="0 0 219 46" width="219" xmlns="http://www.w3.org/2000/svg">
    <path
        d="M47.8131 7.45833C49.856 7.45833 51.5212 7.73611 52.8085 8.29167C54.1238 8.84722 55.2712 9.56944 56.2507 10.4583V14.5833C55.635 14.1389 54.9354 13.6528 54.1518 13.125C53.3962 12.5972 52.5007 12.1389 51.4652 11.75C50.4577 11.3333 49.2404 11.125 47.8131 11.125C45.7142 11.125 43.8392 11.5972 42.188 12.5417C40.5369 13.4861 39.2356 14.7917 38.2841 16.4583C37.3326 18.0972 36.8568 19.9583 36.8568 22.0417C36.8568 24.125 37.3326 25.9861 38.2841 27.625C39.2356 29.2639 40.5369 30.5694 42.188 31.5417C43.8392 32.4861 45.7142 32.9583 47.8131 32.9583C49.968 32.9583 51.801 32.6111 53.3122 31.9167C54.8514 31.1944 56.1108 30.4583 57.0903 29.7083V33.4583C56.1108 34.3194 54.8234 35.0694 53.2283 35.7083C51.6611 36.3194 49.856 36.625 47.8131 36.625C45.6862 36.625 43.7272 36.25 41.9362 35.5C40.1451 34.7222 38.5779 33.6667 37.2346 32.3333C35.8913 31 34.8419 29.4583 34.0862 27.7083C33.3586 25.9306 32.9948 24.0417 32.9948 22.0417C32.9948 20.0417 33.3586 18.1667 34.0862 16.4167C34.8419 14.6389 35.8913 13.0833 37.2346 11.75C38.5779 10.4167 40.1451 9.375 41.9362 8.625C43.7272 7.84722 45.6862 7.45833 47.8131 7.45833Z"
        fill="#A69376" />
    <path
        d="M79.7585 15.1667V27.5C79.7585 29.3333 79.3667 30.9167 78.5831 32.25C77.7995 33.5833 76.736 34.6111 75.3927 35.3333C74.0494 36.0556 72.5382 36.4167 70.8591 36.4167C69.18 36.4167 67.6688 36.0556 66.3255 35.3333C64.9822 34.6111 63.9187 33.5833 63.1351 32.25C62.3515 30.9167 61.9597 29.3333 61.9597 27.5V15.1667H65.5279V27.5C65.5279 29.3056 66.0596 30.6944 67.123 31.6667C68.2145 32.6111 69.4598 33.0833 70.8591 33.0833C72.2584 33.0833 73.4897 32.6111 74.5532 31.6667C75.6446 30.6944 76.1903 29.3056 76.1903 27.5V15.1667H79.7585Z"
        fill="#A69376" />
    <path
        d="M96.7596 14.75C98.5787 14.75 100.216 15.1944 101.671 16.0833C103.154 16.9444 104.33 18.1667 105.197 19.75C106.093 21.3056 106.541 23.1389 106.541 25.25C106.541 27.5278 106.093 29.5278 105.197 31.25C104.33 32.9444 103.126 34.2639 101.587 35.2083C100.076 36.1528 98.3548 36.625 96.4238 36.625C95.2204 36.625 93.9891 36.3056 92.7297 35.6667C91.4984 35.0278 90.4349 34.2083 89.5394 33.2083V46H86.0972V15.1667H89.5394V18.7083C90.267 17.5972 91.2465 16.6667 92.4778 15.9167C93.7372 15.1389 95.1644 14.75 96.7596 14.75ZM96.2139 18.0833C94.9546 18.0833 93.8072 18.4028 92.7717 19.0417C91.7642 19.6806 90.9666 20.5694 90.3789 21.7083C89.8192 22.8194 89.5394 24.125 89.5394 25.625L89.5814 29.625C90.4769 30.7083 91.4144 31.5972 92.3939 32.2917C93.3734 32.9583 94.5068 33.2917 95.7941 33.2917C97.3053 33.2917 98.5927 32.9028 99.6561 32.125C100.72 31.3472 101.531 30.3472 102.091 29.125C102.679 27.875 102.972 26.5833 102.972 25.25C102.972 23.8889 102.693 22.6806 102.133 21.625C101.573 20.5417 100.79 19.6806 99.782 19.0417C98.7746 18.4028 97.5852 18.0833 96.2139 18.0833Z"
        fill="#A69376" />
    <path
        d="M125.389 7.45833C127.432 7.45833 129.097 7.73611 130.384 8.29167C131.699 8.84722 132.847 9.56944 133.826 10.4583V14.5833C133.211 14.1389 132.511 13.6528 131.727 13.125C130.972 12.5972 130.076 12.1389 129.041 11.75C128.033 11.3333 126.816 11.125 125.389 11.125C123.29 11.125 121.415 11.5972 119.764 12.5417C118.113 13.4861 116.811 14.7917 115.86 16.4583C114.908 18.0972 114.432 19.9583 114.432 22.0417C114.432 24.125 114.908 25.9861 115.86 27.625C116.811 29.2639 118.113 30.5694 119.764 31.5417C121.415 32.4861 123.29 32.9583 125.389 32.9583C127.544 32.9583 129.377 32.6111 130.888 31.9167C132.427 31.1944 133.686 30.4583 134.666 29.7083V33.4583C133.686 34.3194 132.399 35.0694 130.804 35.7083C129.237 36.3194 127.432 36.625 125.389 36.625C123.262 36.625 121.303 36.25 119.512 35.5C117.721 34.7222 116.154 33.6667 114.81 32.3333C113.467 31 112.417 29.4583 111.662 27.7083C110.934 25.9306 110.57 24.0417 110.57 22.0417C110.57 20.0417 110.934 18.1667 111.662 16.4167C112.417 14.6389 113.467 13.0833 114.81 11.75C116.154 10.4167 117.721 9.375 119.512 8.625C121.303 7.84722 123.262 7.45833 125.389 7.45833Z"
        fill="#F1950A" />
    <path d="M143.607 6V36H140.165V6H143.607Z" fill="#F1950A" />
    <path
        d="M160.063 14.75C162.19 14.75 164.079 15.25 165.73 16.25C167.381 17.25 168.668 18.5833 169.592 20.25C170.543 21.9167 171.019 23.7361 171.019 25.7083C171.019 27.6806 170.543 29.5 169.592 31.1667C168.668 32.8056 167.381 34.125 165.73 35.125C164.079 36.125 162.19 36.625 160.063 36.625C157.936 36.625 156.047 36.125 154.396 35.125C152.744 34.125 151.443 32.8056 150.492 31.1667C149.568 29.5 149.106 27.6806 149.106 25.7083C149.106 23.7361 149.568 21.9167 150.492 20.25C151.443 18.5833 152.744 17.25 154.396 16.25C156.047 15.25 157.936 14.75 160.063 14.75ZM160.063 18.0833C158.579 18.0833 157.278 18.4444 156.159 19.1667C155.039 19.8611 154.172 20.7917 153.556 21.9583C152.968 23.0972 152.675 24.3472 152.675 25.7083C152.675 27.0417 152.968 28.2917 153.556 29.4583C154.172 30.5972 155.039 31.5278 156.159 32.25C157.278 32.9444 158.579 33.2917 160.063 33.2917C161.574 33.2917 162.875 32.9444 163.967 32.25C165.086 31.5278 165.94 30.5972 166.527 29.4583C167.143 28.2917 167.451 27.0417 167.451 25.7083C167.451 24.3472 167.143 23.0972 166.527 21.9583C165.94 20.7917 165.086 19.8611 163.967 19.1667C162.875 18.4444 161.574 18.0833 160.063 18.0833Z"
        fill="#F1950A" />
    <path
        d="M193.687 15.1667V27.5C193.687 29.3333 193.295 30.9167 192.512 32.25C191.728 33.5833 190.665 34.6111 189.321 35.3333C187.978 36.0556 186.467 36.4167 184.788 36.4167C183.109 36.4167 181.597 36.0556 180.254 35.3333C178.911 34.6111 177.847 33.5833 177.064 32.25C176.28 30.9167 175.888 29.3333 175.888 27.5V15.1667H179.457V27.5C179.457 29.3056 179.988 30.6944 181.052 31.6667C182.143 32.6111 183.389 33.0833 184.788 33.0833C186.187 33.0833 187.418 32.6111 188.482 31.6667C189.573 30.6944 190.119 29.3056 190.119 27.5V15.1667H193.687Z"
        fill="#F1950A" />
    <path
        d="M219 6V36H215.558V32.4583C214.83 33.5694 213.837 34.5417 212.577 35.375C211.346 36.2083 209.933 36.625 208.338 36.625C206.546 36.625 204.909 36.1806 203.426 35.2917C201.943 34.375 200.753 33.1111 199.858 31.5C198.99 29.8889 198.557 28.0278 198.557 25.9167C198.557 23.6111 198.99 21.625 199.858 19.9583C200.753 18.2917 201.971 17.0139 203.51 16.125C205.049 15.2083 206.77 14.75 208.673 14.75C209.877 14.75 211.094 15.0417 212.325 15.625C213.585 16.1806 214.662 16.9583 215.558 17.9583V6H219ZM209.303 18.1667C207.792 18.1667 206.504 18.5417 205.441 19.2917C204.378 20.0139 203.552 20.9583 202.964 22.125C202.405 23.2917 202.125 24.5556 202.125 25.9167C202.125 27.25 202.405 28.4861 202.964 29.625C203.524 30.7361 204.308 31.625 205.315 32.2917C206.351 32.9583 207.54 33.2917 208.883 33.2917C210.171 33.2917 211.318 32.9583 212.325 32.2917C213.333 31.625 214.131 30.7083 214.718 29.5417C215.306 28.3472 215.586 27.0139 215.558 25.5417L215.516 21.5417C214.648 20.4583 213.711 19.625 212.703 19.0417C211.724 18.4583 210.59 18.1667 209.303 18.1667Z"
        fill="#F1950A" />
    <path
        d="M3.82841 38C2.7756 38 1.87464 37.6282 1.12555 36.8847C0.375184 36.1399 0 35.245 0 34.2V3.8C0 2.755 0.375184 1.8601 1.12555 1.1153C1.87464 0.371767 2.7756 0 3.82841 0H30.6273V3.8H26.7988V7.6C26.7988 8.13833 26.6151 8.5899 26.2476 8.9547C25.8813 9.31823 25.427 9.5 24.8846 9.5H9.57102C9.02866 9.5 8.57436 9.31823 8.20811 8.9547C7.84058 8.5899 7.65681 8.13833 7.65681 7.6V3.8H3.82841V34.2H11.5809C10.3686 33.345 9.4115 32.2607 8.70963 30.9472C8.00775 29.6324 7.65681 28.1833 7.65681 26.6V17.1H26.7988V26.6C26.7988 28.1833 26.4479 29.6324 25.746 30.9472C25.0442 32.2607 24.0871 33.345 22.8747 34.2H30.6273V38H3.82841ZM17.2278 32.3C18.823 32.3 20.1789 31.7458 21.2955 30.6375C22.4121 29.5292 22.9704 28.1833 22.9704 26.6V20.9H11.4852V26.6C11.4852 28.1833 12.0435 29.5292 13.1602 30.6375C14.2768 31.7458 15.6327 32.3 17.2278 32.3ZM17.2278 15.2C17.7702 15.2 18.2251 15.0176 18.5927 14.6528C18.9589 14.2893 19.142 13.8383 19.142 13.3C19.142 12.7617 18.9589 12.3101 18.5927 11.9453C18.2251 11.5818 17.7702 11.4 17.2278 11.4C16.6855 11.4 16.2312 11.5818 15.8649 11.9453C15.4974 12.3101 15.3136 12.7617 15.3136 13.3C15.3136 13.8383 15.4974 14.2893 15.8649 14.6528C16.2312 15.0176 16.6855 15.2 17.2278 15.2Z"
        fill="#F1950A" />
</svg>
